<svg xmlns="http://www.w3.org/2000/svg" viewBox="0 0 1600 900" preserveAspectRatio="xMidYMid slice" aria-hidden="true">
  <defs>
    <linearGradient id="sky" x1="0%" y1="0%" x2="40%" y2="100%">
      <stop offset="0%" stop-color="#3b6fd4"/>
      <stop offset="45%" stop-color="#7ec8e8"/>
      <stop offset="100%" stop-color="#fde68a"/>
    </linearGradient>
    <linearGradient id="grass" x1="0%" y1="0%" x2="0%" y2="100%">
      <stop offset="0%" stop-color="#4ade80"/>
      <stop offset="100%" stop-color="#15803d"/>
    </linearGradient>
    <linearGradient id="bench" x1="0%" y1="0%" x2="100%" y2="0%">
      <stop offset="0%" stop-color="#78716c"/>
      <stop offset="100%" stop-color="#57534e"/>
    </linearGradient>
    <radialGradient id="sun" cx="50%" cy="50%" r="50%">
      <stop offset="0%" stop-color="#fff7ed" stop-opacity="0.95"/>
      <stop offset="70%" stop-color="#fde68a" stop-opacity="0.4"/>
      <stop offset="100%" stop-color="#fde68a" stop-opacity="0"/>
    </radialGradient>
    <radialGradient id="vignette" cx="32%" cy="38%" r="72%">
      <stop offset="0%" stop-color="#0f172a" stop-opacity="0"/>
      <stop offset="100%" stop-color="#0f172a" stop-opacity="0.58"/>
    </radialGradient>
    <filter id="soft" x="-20%" y="-20%" width="140%" height="140%">
      <feGaussianBlur stdDeviation="2" result="b"/>
      <feMerge>
        <feMergeNode in="b"/>
        <feMergeNode in="SourceGraphic"/>
      </feMerge>
    </filter>
  </defs>
  <rect width="1600" height="900" fill="url(#sky)"/>
  <circle cx="1280" cy="160" r="120" fill="url(#sun)"/>
  <ellipse cx="800" cy="820" rx="980" ry="220" fill="url(#grass)" opacity="0.92"/>
  <path d="M180 520 L320 480 L1180 500 L1450 560 L1450 900 L180 900 Z" fill="#166534" opacity="0.35"/>
  <g filter="url(#soft)" transform="translate(980 280)">
    <rect x="0" y="80" width="380" height="340" rx="8" fill="#e2e8f0"/>
    <rect x="20" y="100" width="70" height="90" rx="4" fill="#93c5fd"/>
    <rect x="110" y="100" width="70" height="90" rx="4" fill="#93c5fd"/>
    <rect x="200" y="100" width="70" height="90" rx="4" fill="#93c5fd"/>
    <rect x="290" y="100" width="70" height="90" rx="4" fill="#93c5fd"/>
    <rect x="140" y="240" width="100" height="180" rx="6" fill="#6366f1"/>
    <polygon points="0,80 190,20 380,80" fill="#cbd5e1"/>
  </g>
  <g fill="#14532d" opacity="0.85">
    <path d="M200 900 C180 700 240 620 320 580 C280 520 220 500 180 540 C200 480 260 450 340 500 C300 420 380 380 420 460 C400 400 460 380 500 440 L500 900 Z"/>
    <path d="M1480 900 C1500 720 1440 640 1360 600 C1400 540 1460 520 1500 560 C1480 500 1420 470 1340 520 C1380 440 1300 400 1260 480 C1280 420 1220 400 1180 460 L1180 900 Z"/>
  </g>
  <g transform="translate(520 560)">
    <rect x="0" y="120" width="360" height="16" rx="4" fill="url(#bench)"/>
    <rect x="24" y="136" width="14" height="64" rx="3" fill="#44403c"/>
    <rect x="322" y="136" width="14" height="64" rx="3" fill="#44403c"/>
    <rect x="0" y="96" width="360" height="14" rx="3" fill="#a8a29e"/>
    <rect x="0" y="76" width="360" height="14" rx="3" fill="#a8a29e"/>
  </g>
  <g transform="translate(620 430)">
    <ellipse cx="90" cy="200" rx="55" ry="62" fill="#fcd9bd"/>
    <path d="M40 280 Q20 400 60 480 L200 480 Q240 400 220 280 Q150 240 40 280" fill="#fafafa"/>
    <path d="M50 480 L70 620 L130 620 L150 480" fill="#fafafa"/>
    <ellipse cx="88" cy="175" rx="75" ry="70" fill="#451a03"/>
    <path d="M30 310 L180 300 L200 380 L20 395 Z" fill="#fef3c7" stroke="#d97706" stroke-width="3"/>
    <text x="55" y="355" font-family="Noto Sans Tamil, system-ui, sans-serif" font-size="22" fill="#b45309">?</text>
    <text x="95" y="355" font-family="Noto Sans Tamil, system-ui, sans-serif" font-size="22" fill="#b45309">?</text>
    <text x="130" y="355" font-family="Noto Sans Tamil, system-ui, sans-serif" font-size="22" fill="#b45309">?</text>
    <circle cx="72" cy="188" r="6" fill="#1e293b"/>
    <circle cx="108" cy="188" r="6" fill="#1e293b"/>
    <path d="M80 215 Q90 225 100 215" stroke="#c2410c" stroke-width="3" fill="none" stroke-linecap="round"/>
  </g>
  <rect width="1600" height="900" fill="url(#vignette)" style="mix-blend-mode: multiply"/>
</svg>
